<svg xmlns="http://www.w3.org/2000/svg" viewBox="0 0 500 500"><defs><style>.cls-1{fill:#85181f;}.cls-2{fill:#f5a108;}.cls-3{fill:#e74917;}.cls-4{fill:#b6191d;}.cls-5{fill:#e1121a;}.cls-6{fill:#eb661d;}</style></defs><title>painted loady logo</title><g id="graphics"><path class="cls-1" d="M165.54,499c-18.68,0-40.75-9.87-46.51-37.55-3.61-17.25,24.41-117.17-41.43-152.24C198.05,342.46,260,500.68,165.54,499Z"/><path class="cls-2" d="M377.69,286.34c9.83-19.36,13.64-40.71,11.83-63.16-2.37-31.86-14.87-59.32-35.55-78,23.57,80-20.42,132.76-114.61,92.73C271.9,312.22,343,305,377.69,286.34Z"/><path class="cls-3" d="M249.64,38.26C207.05,80.63,190.93,141.08,185.54,192c16.76-28.7,34.46-50.81,52.54-65.8H238c73.67-60.87,157.77-25.42,214.45,46.51a9.58,9.58,0,0,1,.23,1,215.43,215.43,0,0,1,18.68,28.1C476.9,53.59,325.27-2.72,249.64,38.26Z"/><path class="cls-4" d="M203,419.41C208.89,361.48,180.87,144.65,28.49,111c11.64,11.87,76.68,93.59,92.2,216.49,39.54,23.05,68.77,58.9,82.33,91.9Z"/><path class="cls-5" d="M108.82,153.39c38.61,35.44,62.79,86.1,77,134.69-1.73-16.27-27-226.32,119.54-286.77C204.45-4.6,126.22,75.09,108.82,153.39Z"/><path class="cls-6" d="M326.51,339.34c47-28.78,66.74-70.21,63-116.16-5.42-72.8-63.88-122.67-151.52-96.94,73.67-60.87,157.77-25.39,214.45,46.51,25.12,106.4-65.34,171.82-125.94,166.59Z"/></g></svg>