<svg xmlns="http://www.w3.org/2000/svg" xmlns:xlink="http://www.w3.org/1999/xlink" viewBox="0 0 500 500"><defs><style>.cls-1{isolation:isolate;}.cls-2{fill:url(#linear-gradient);}.cls-3{fill:url(#linear-gradient-2);}.cls-4{fill:#ef4136;}.cls-5{fill:#da1c5c;}.cls-6{fill:#ed377d;}.cls-7{fill:url(#linear-gradient-3);}.cls-8{fill:url(#linear-gradient-4);}.cls-9{fill:url(#linear-gradient-5);}.cls-10{fill:url(#linear-gradient-6);}.cls-11{fill:#f15a29;}.cls-12{fill:#f7941e;}.cls-13,.cls-15,.cls-16,.cls-17,.cls-18,.cls-19,.cls-20,.cls-21,.cls-22,.cls-23,.cls-24,.cls-25{mix-blend-mode:multiply;}.cls-13{fill:url(#linear-gradient-7);}.cls-14{fill:url(#linear-gradient-8);}.cls-15{fill:url(#radial-gradient);}.cls-16{fill:url(#linear-gradient-9);}.cls-17{fill:url(#linear-gradient-10);}.cls-18{fill:url(#radial-gradient-2);}.cls-19{fill:url(#radial-gradient-3);}.cls-20{fill:url(#radial-gradient-4);}.cls-21{fill:url(#radial-gradient-5);}.cls-22{fill:url(#linear-gradient-11);}.cls-23{fill:url(#linear-gradient-12);}.cls-24{fill:url(#linear-gradient-13);}.cls-25{fill:url(#radial-gradient-6);}</style><linearGradient id="linear-gradient" x1="162.04" y1="300.6" x2="320.02" y2="300.6" gradientUnits="userSpaceOnUse"><stop offset="0" stop-color="#682877"/><stop offset="0.35" stop-color="#7e2784"/><stop offset="0.7" stop-color="#8d278c"/><stop offset="0.99" stop-color="#92278f"/></linearGradient><linearGradient id="linear-gradient-2" x1="258.77" y1="5.34" x2="378.16" y2="176.12" gradientUnits="userSpaceOnUse"><stop offset="0" stop-color="#0b5e87"/><stop offset="1" stop-color="#27aae1"/></linearGradient><linearGradient id="linear-gradient-3" x1="23.52" y1="226.05" x2="206.96" y2="215.5" gradientUnits="userSpaceOnUse"><stop offset="0.3" stop-color="#8dc63f"/><stop offset="1" stop-color="#d7df23"/></linearGradient><linearGradient id="linear-gradient-4" x1="67.98" y1="189.2" x2="1.56" y2="171.27" gradientUnits="userSpaceOnUse"><stop offset="0" stop-color="#f7941e"/><stop offset="1" stop-color="#ffde17"/></linearGradient><linearGradient id="linear-gradient-5" x1="424.25" y1="267.4" x2="496.84" y2="267.4" gradientUnits="userSpaceOnUse"><stop offset="0.32" stop-color="#39b54a"/><stop offset="0.85" stop-color="#8dc63f"/></linearGradient><linearGradient id="linear-gradient-6" x1="115.29" y1="365.81" x2="211.41" y2="365.81" xlink:href="#linear-gradient-2"/><linearGradient id="linear-gradient-7" x1="298.11" y1="256.18" x2="218.68" y2="317.28" gradientUnits="userSpaceOnUse"><stop offset="0" stop-color="#939598"/><stop offset="0.01" stop-color="#95979a"/><stop offset="0.33" stop-color="#c3c4c5"/><stop offset="0.61" stop-color="#e4e4e5"/><stop offset="0.84" stop-color="#f8f8f8"/><stop offset="1" stop-color="#fff"/></linearGradient><linearGradient id="linear-gradient-8" x1="396.05" y1="226.81" x2="323.74" y2="382.45" xlink:href="#linear-gradient-4"/><radialGradient id="radial-gradient" cx="410.6" cy="330.01" r="133.03" gradientUnits="userSpaceOnUse"><stop offset="0" stop-color="#f7941e"/><stop offset="0.07" stop-color="#f89c2f"/><stop offset="0.2" stop-color="#f8a848"/><stop offset="0.32" stop-color="#f9af58"/><stop offset="0.42" stop-color="#f9b25d"/><stop offset="1" stop-color="#e6e7e8"/></radialGradient><linearGradient id="linear-gradient-9" x1="479.75" y1="274.28" x2="440.22" y2="267.96" xlink:href="#linear-gradient-7"/><linearGradient id="linear-gradient-10" x1="197.46" y1="299.19" x2="183.36" y2="403.93" xlink:href="#linear-gradient-7"/><radialGradient id="radial-gradient-2" cx="299.72" cy="70.14" r="131.45" gradientUnits="userSpaceOnUse"><stop offset="0.13" stop-color="#0b5e87"/><stop offset="0.19" stop-color="#287094"/><stop offset="0.3" stop-color="#5a90aa"/><stop offset="0.41" stop-color="#85aabd"/><stop offset="0.52" stop-color="#a8c0cd"/><stop offset="0.63" stop-color="#c3d1d9"/><stop offset="0.75" stop-color="#d7dde1"/><stop offset="0.86" stop-color="#e2e5e6"/><stop offset="0.98" stop-color="#e6e7e8"/></radialGradient><radialGradient id="radial-gradient-3" cx="56.58" cy="204.84" r="132.48" gradientUnits="userSpaceOnUse"><stop offset="0" stop-color="#39b54a"/><stop offset="0.2" stop-color="#65c272"/><stop offset="0.65" stop-color="#c1dcc6"/><stop offset="0.85" stop-color="#e6e7e8"/></radialGradient><radialGradient id="radial-gradient-4" cx="143.16" cy="63.54" r="76.21" gradientUnits="userSpaceOnUse"><stop offset="0.13" stop-color="#be1e2d"/><stop offset="1" stop-color="#e6e7e8"/></radialGradient><radialGradient id="radial-gradient-5" cx="493.04" cy="150.16" r="71.59" gradientUnits="userSpaceOnUse"><stop offset="0" stop-color="#939598"/><stop offset="1" stop-color="#e6e7e8"/></radialGradient><linearGradient id="linear-gradient-11" x1="-20.42" y1="162.09" x2="43.63" y2="189.76" gradientUnits="userSpaceOnUse"><stop offset="0" stop-color="#939598"/><stop offset="1" stop-color="#fff"/></linearGradient><linearGradient id="linear-gradient-12" x1="148.26" y1="385.95" x2="161.45" y2="361.59" xlink:href="#linear-gradient-11"/><linearGradient id="linear-gradient-13" x1="134.46" y1="236.82" x2="154.5" y2="220.79" xlink:href="#linear-gradient-7"/><radialGradient id="radial-gradient-6" cx="379.84" cy="137.96" r="45.77" gradientUnits="userSpaceOnUse"><stop offset="0" stop-color="#939598"/><stop offset="0.28" stop-color="#b5b6b8"/><stop offset="0.56" stop-color="#d0d1d2"/><stop offset="0.81" stop-color="#e0e1e2"/><stop offset="1" stop-color="#e6e7e8"/></radialGradient></defs><title>painted loady logo</title><g class="cls-1"><g id="graphics"><path class="cls-2" d="M287.31,193.92c-19-25.28-49.37-46.6-75.15-46.6s-47.81,16.24-49.91,40.22c-1.88,21.46,8.38,44.19,35.75,61,35.56,21.89,63.91,61,67.82,109.51,2.32,28.81-6,69.58-21.85,95.8,1.59,0,60.9-39,73.66-122.32C325.38,281,314,229.53,287.31,193.92Z"/><path class="cls-3" d="M366.3,128.72C381.54,114,398.71,106.8,397,88c-2.23-24.21-34.64-42.08-65.44-21.42-19,12.76-30.69,35.47-32.91,63.95-2.1,27.1,4.83,56.59,19,80.89C318,212.06,309.1,184,366.3,128.72Z"/><path class="cls-4" d="M248.47,346.3c-9.33-36.83-33.93-66.18-62.69-74.76-23.77-7.09-43.46,2.52-50.42,18.56-5.84,13.44-1.93,29.38,10.46,42.63s21.14,15.1,46.26,23.37c14.62,4.81,25,12.93,31.26,22.85,15.29,24.2,8.38,53.65,3.8,61.19C249.66,417.62,257.63,382.53,248.47,346.3Z"/><path class="cls-5" d="M425.87,110.06c1.44,12.9,1.7,22.42,1.87,28.72.06,2.41.12,4.32.22,5.86,1.81,28.2,19.62,40.82,36.48,40.82h0a34,34,0,0,0,27.74-14.22c8-11.27,9-27.14,2.84-44.71-22.08-62.92-84-79.9-110.95-75.69C393,52.27,420.9,65.54,425.87,110.06Z"/><path class="cls-6" d="M135.23,115.19A192.31,192.31,0,0,1,171,111.66c35.16,0,66.43,13.36,80.85,32.45-7.5-33.33-50.39-91.39-121.69-97.57-27.32-2.37-59.68,4.75-63.07,32.72-1.2,9.91,1.26,18.64,7.12,25.25C85.05,116.72,106.78,120.58,135.23,115.19Z"/><path class="cls-7" d="M119.43,240.53c-4.15-24.63,3.89-51.07,22.06-72.55s46.54-33.53,72.58-35.6a117,117,0,0,0-31.29-4.21c-51.67,0-107.17,33.46-134.95,81.37C3,286.86,65.47,336.89,107,298.92,120.7,286.44,123.39,264.06,119.43,240.53Z"/><path class="cls-8" d="M51.25,172.12c13.19-15.27,19-31.21,16-43.75s-14.86-19-26.31-19c-19.9,0-31.75,22.07-35.61,35.11-11.29,38.1,1.38,84.75,13.85,105.28C15.57,232.48,34.09,192,51.25,172.12Z"/><path class="cls-9" d="M451.92,205.87c-8.56,9.71-9.7,26.14-7.9,50.28,2.57,34.52-11.86,73.06-19.77,80.74,1.58,0,55.19-45.6,69.08-89.69,2.42-7.66,7.62-28.42-2.46-40.59C481.66,195.49,461.68,194.8,451.92,205.87Z"/><path class="cls-10" d="M178.93,369.17c-52.21-13.25-63-50.48-62.18-55.85-4.44,22.39,1.34,47.58,15.84,69.11,12.6,18.69,29.7,31.68,45.75,34.76,13.77,2.64,26.46,1.26,31.58-11.78C214.68,393.27,209,376.79,178.93,369.17Z"/><path class="cls-11" d="M397.22,136.38c-20.66-2.52-48.33,26.74-54.11,47.61,3.55-4.47,17.68-13.51,36.2-12.32,6.71.43,14.52.36,20.92-1.56C415.58,165.5,415.86,138.65,397.22,136.38Z"/><path class="cls-12" d="M144.81,194.09c-.18.41-18.45,30.56-4.88,54.49,2.81,5,7,8.31,12.59,8.31s17.56-7.89,4.12-25.71C143.36,213.57,144.34,200.92,144.81,194.09Z"/><path class="cls-13" d="M172.7,225.49c5.64,8,14.49,16.42,25.3,23.08,35.56,21.89,63.91,61,67.82,109.51,2.32,28.81-6,69.58-21.85,95.8,91.64-121.3,32.74-243.21-19.56-263.13C172.41,170.94,162.76,211.41,172.7,225.49Z"/><path class="cls-14" d="M414.77,205.19c-15.89-18.78-41.1-21.53-57.92-9.61-26.07,18.47-23.9,39.36-21.15,65.81.8,7.7,1.63,15.65,1.84,24.22,1.23,49.59-17.78,123.47-55.9,154.73,32-9.62,62.53-31.49,90.55-60,30.41-30.95,50.3-66.75,56-100.79C435,239.18,424.63,216.83,414.77,205.19Z"/><path class="cls-15" d="M390.25,220c-21.22-34.65-48.72-8.94-49-8.63-9.18,14.53-7.51,30.8-5.51,50,.8,7.7,1.63,15.65,1.84,24.22,1.23,49.59-17.78,123.47-55.9,154.73C366.08,402.82,411.6,254.89,390.25,220Z"/><path class="cls-16" d="M466.68,200.72c-4.38-1.05-11.75,1.73-14.76,5.15-8.56,9.71-9.7,26.14-7.9,50.28,2.57,34.52-11.86,73.06-19.77,80.74,44.28-45.31,55.35-97.34,55.35-114.21C479.6,206.09,472.07,202,466.68,200.72Z"/><path class="cls-17" d="M227.67,439.17c48-85.5-30.09-154.21-64.93-148.7-25.42,4-28,24.41-22.93,34.64a56.53,56.53,0,0,0,6,7.62c12.28,13.15,21.14,15.1,46.26,23.37,14.62,4.81,25,12.93,31.26,22.85C238.05,402.22,232.21,430.34,227.67,439.17Z"/><path class="cls-18" d="M366.3,128.72c12.75-12.33,26.82-19.4,30.06-32.4.12-15.88-20.29-35.39-51.57-6.81-45.11,41.22-27.15,121.89-27.15,121.89C318,212.06,309.1,184,366.3,128.72Z"/><path class="cls-19" d="M66.82,232.06c-32.29,76.6,40.36,90.08,52,46.28,1.26-6.26,4.1-17.07.61-37.81-4.15-24.63,3.89-51.07,22.06-72.55s46.54-33.53,72.58-35.6C214.07,132.38,111.34,126.42,66.82,232.06Z"/><path class="cls-20" d="M106.39,69.87C73.09,74,72,101.53,83.3,111.52c12,6.46,30,7.83,51.93,3.67A192.31,192.31,0,0,1,171,111.66c35.16,0,66.43,13.36,80.85,32.45C214.07,82.12,141.58,65.52,106.39,69.87Z"/><path class="cls-21" d="M425.87,110.06c2,17.7,1.73,28.94,2.09,34.58,2.41,37.64,30,38,39.43,23.67,8.52-12.87,9.26-35.2-15.47-70.65-30-43-67.85-46.82-67.85-46.82C393,52.27,420.9,65.54,425.87,110.06Z"/><path class="cls-22" d="M51.25,172.12c7.31-8.46,13.87-19,16-29.85,2.64-18.5-24.43-28.33-38.66-3.09C6.22,179,19.23,249.72,19.23,249.72,15.57,232.48,34.09,192,51.25,172.12Z"/><path class="cls-23" d="M142.24,373.23c21.81,27.15,50.6,28.6,60.09,28.73a23,23,0,0,0,8.87-1.43c1.6-11.36-6.1-24.72-32.27-31.36-52.21-13.25-63-50.48-62.18-55.85C115.72,320.21,121.45,347.37,142.24,373.23Z"/><path class="cls-24" d="M156.64,231.18c-13.28-17.61-12.3-30.26-11.83-37.09,0,0-6.53,14.85-1.82,38.22,1.85,9.16,7.95,21.52,16.77,18.49C164.11,249.31,162.87,239.45,156.64,231.18Z"/><path class="cls-25" d="M379.31,171.67c6.72.15,14.52.36,20.92-1.56,14.51-4.37,11.26-24.14-11.3-19.86C361.26,155.51,343.11,184,343.11,184,342.91,184.32,354.06,171.13,379.31,171.67Z"/></g></g></svg>