<svg xmlns="http://www.w3.org/2000/svg" xmlns:xlink="http://www.w3.org/1999/xlink" viewBox="0 0 500 500"><defs><style>.cls-1{fill:#f5f5f5;}.cls-2{fill:url(#linear-gradient);}.cls-3{fill:url(#linear-gradient-2);}.cls-4{fill:#ffbd79;}.cls-5{fill:#c2e49b;}.cls-6{fill:#c7c8ce;}.cls-7{fill:url(#linear-gradient-3);}.cls-8{fill:url(#linear-gradient-4);}.cls-9{fill:url(#linear-gradient-5);}</style><linearGradient id="linear-gradient" x1="124.58" y1="349.58" x2="485.37" y2="170.14" gradientUnits="userSpaceOnUse"><stop offset="0.03" stop-color="#f93651"/><stop offset="0.65" stop-color="#f89549"/></linearGradient><linearGradient id="linear-gradient-2" x1="237.76" y1="80.59" x2="427.85" y2="80.59" gradientUnits="userSpaceOnUse"><stop offset="0" stop-color="#c374ec"/><stop offset="1" stop-color="#e8a9ee"/></linearGradient><linearGradient id="linear-gradient-3" x1="27.09" y1="222.7" x2="252.34" y2="117.71" gradientUnits="userSpaceOnUse"><stop offset="0.28" stop-color="#f93651"/><stop offset="0.92" stop-color="#f89549"/></linearGradient><linearGradient id="linear-gradient-4" x1="100.75" y1="456.78" x2="96.09" y2="140.14" gradientUnits="userSpaceOnUse"><stop offset="0.32" stop-color="#f93651"/><stop offset="0.98" stop-color="#f89549"/></linearGradient><linearGradient id="linear-gradient-5" x1="91.64" y1="464" x2="479.16" y2="76.48" xlink:href="#linear-gradient-4"/></defs><title>painted loady logo</title><g id="graphics"><path class="cls-1" d="M298.05,297.84a69.44,69.44,0,1,1-69.45-69.43A69.44,69.44,0,0,1,298.05,297.84Z"/><path class="cls-1" d="M298.05,297.84a69.44,69.44,0,1,1-69.45-69.43A69.44,69.44,0,0,1,298.05,297.84Z"/><path class="cls-1" d="M297.23,187.55a95.55,95.55,0,0,1-19.06-9.79A126,126,0,0,1,297.23,187.55Z"/><path class="cls-1" d="M228.6,228.41a69.44,69.44,0,1,1-69.43,69.43A69.43,69.43,0,0,1,228.6,228.41Z"/><path class="cls-2" d="M298.05,297.84a69.44,69.44,0,1,1-69.45-69.43A69.44,69.44,0,0,1,298.05,297.84Z"/><path class="cls-3" d="M427.85,97.4a96,96,0,0,1-23.25,62.78A223.09,223.09,0,0,0,237.76,74.6,96.41,96.41,0,0,1,427.85,97.4Z"/><circle class="cls-4" cx="42.4" cy="97.24" r="32.93"/><circle class="cls-5" cx="138.12" cy="22.63" r="14.68"/><circle class="cls-6" cx="471.86" cy="226.1" r="18.67"/><path class="cls-7" d="M201.9,98.46A201.34,201.34,0,0,0,42.75,220.79a116,116,0,0,1,125-37.7A129.29,129.29,0,0,1,228.6,168a130.86,130.86,0,0,1,24.49,2.31A164.58,164.58,0,0,1,201.9,98.46Z"/><path class="cls-8" d="M132.87,177.76a115.66,115.66,0,0,0-90.12,43,201.08,201.08,0,0,0,56.34,231V307.83q-.37-4.95-.38-10c0-3.34.13-6.66.38-9.93a129.9,129.9,0,0,1,68.62-104.82A115.91,115.91,0,0,0,132.87,177.76Z"/><path class="cls-9" d="M404.27,199.77a201.27,201.27,0,0,0-169.22-103c-2.14-.06-4.29-.1-6.45-.1a202.83,202.83,0,0,0-26.7,1.77,164.58,164.58,0,0,0,51.19,71.8,128.8,128.8,0,0,1,25.06,7.48,0,0,0,0,0,0,0,95.55,95.55,0,0,0,19.06,9.79A129.9,129.9,0,1,1,159.17,407.63v79.06A200.54,200.54,0,0,0,228.6,499c111.1,0,201.16-90.07,201.16-201.16A200.23,200.23,0,0,0,404.27,199.77Z"/></g></svg>